<mxfile host="app.diagrams.net" modified="2023-01-10T09:48:53.744Z" agent="5.0 (Macintosh; Intel Mac OS X 10_15_7) AppleWebKit/537.36 (KHTML, like Gecko) Chrome/108.0.0.0 Safari/537.36" version="20.8.1" etag="SX3jz4HL-4pY7we7snSU" type="github">
  <diagram id="UnLvdqP_MzovWsX-BJ6_" name="第 1 页">
    <mxGraphModel dx="2009" dy="960" grid="1" gridSize="10" guides="1" tooltips="1" connect="1" arrows="1" fold="1" page="1" pageScale="1" pageWidth="827" pageHeight="1169" math="0" shadow="0">
      <root>
        <mxCell id="0" />
        <mxCell id="1" parent="0" />
        <mxCell id="A1_KAzMcSSircRwKWK7I-2" value="" style="edgeStyle=orthogonalEdgeStyle;rounded=0;orthogonalLoop=1;jettySize=auto;html=1;" edge="1" parent="1" source="A1_KAzMcSSircRwKWK7I-3" target="A1_KAzMcSSircRwKWK7I-6">
          <mxGeometry relative="1" as="geometry" />
        </mxCell>
        <mxCell id="A1_KAzMcSSircRwKWK7I-3" value="C端" style="rounded=1;whiteSpace=wrap;html=1;" vertex="1" parent="1">
          <mxGeometry y="340" width="120" height="60" as="geometry" />
        </mxCell>
        <mxCell id="A1_KAzMcSSircRwKWK7I-4" style="edgeStyle=orthogonalEdgeStyle;rounded=0;orthogonalLoop=1;jettySize=auto;html=1;entryX=0;entryY=0.5;entryDx=0;entryDy=0;" edge="1" parent="1" source="A1_KAzMcSSircRwKWK7I-6" target="A1_KAzMcSSircRwKWK7I-10">
          <mxGeometry relative="1" as="geometry">
            <mxPoint x="260" y="270" as="targetPoint" />
            <Array as="points">
              <mxPoint x="250" y="270" />
            </Array>
          </mxGeometry>
        </mxCell>
        <mxCell id="A1_KAzMcSSircRwKWK7I-5" style="edgeStyle=orthogonalEdgeStyle;rounded=0;orthogonalLoop=1;jettySize=auto;html=1;entryX=0;entryY=0.5;entryDx=0;entryDy=0;" edge="1" parent="1" source="A1_KAzMcSSircRwKWK7I-6" target="A1_KAzMcSSircRwKWK7I-8">
          <mxGeometry relative="1" as="geometry">
            <Array as="points">
              <mxPoint x="250" y="460" />
            </Array>
          </mxGeometry>
        </mxCell>
        <mxCell id="A1_KAzMcSSircRwKWK7I-6" value="商品选择" style="whiteSpace=wrap;html=1;rounded=1;" vertex="1" parent="1">
          <mxGeometry x="200" y="340" width="120" height="60" as="geometry" />
        </mxCell>
        <mxCell id="A1_KAzMcSSircRwKWK7I-7" style="edgeStyle=orthogonalEdgeStyle;rounded=0;orthogonalLoop=1;jettySize=auto;html=1;entryX=0;entryY=0.5;entryDx=0;entryDy=0;" edge="1" parent="1" source="A1_KAzMcSSircRwKWK7I-8" target="A1_KAzMcSSircRwKWK7I-12">
          <mxGeometry relative="1" as="geometry" />
        </mxCell>
        <mxCell id="A1_KAzMcSSircRwKWK7I-8" value="直接下单" style="whiteSpace=wrap;html=1;rounded=1;" vertex="1" parent="1">
          <mxGeometry x="360" y="430" width="130" height="60" as="geometry" />
        </mxCell>
        <mxCell id="A1_KAzMcSSircRwKWK7I-9" value="" style="edgeStyle=orthogonalEdgeStyle;rounded=0;orthogonalLoop=1;jettySize=auto;html=1;" edge="1" parent="1" source="A1_KAzMcSSircRwKWK7I-10" target="A1_KAzMcSSircRwKWK7I-27">
          <mxGeometry relative="1" as="geometry" />
        </mxCell>
        <mxCell id="A1_KAzMcSSircRwKWK7I-10" value="加入购物车" style="rounded=1;whiteSpace=wrap;html=1;" vertex="1" parent="1">
          <mxGeometry x="350" y="240" width="120" height="60" as="geometry" />
        </mxCell>
        <mxCell id="A1_KAzMcSSircRwKWK7I-11" style="edgeStyle=orthogonalEdgeStyle;rounded=0;orthogonalLoop=1;jettySize=auto;html=1;entryX=0;entryY=0.5;entryDx=0;entryDy=0;" edge="1" parent="1" source="A1_KAzMcSSircRwKWK7I-12" target="A1_KAzMcSSircRwKWK7I-17">
          <mxGeometry relative="1" as="geometry" />
        </mxCell>
        <mxCell id="A1_KAzMcSSircRwKWK7I-12" value="实体类商品（下单地址选择）" style="rounded=1;whiteSpace=wrap;html=1;" vertex="1" parent="1">
          <mxGeometry x="600" y="430" width="120" height="60" as="geometry" />
        </mxCell>
        <mxCell id="A1_KAzMcSSircRwKWK7I-13" value="" style="edgeStyle=orthogonalEdgeStyle;rounded=0;orthogonalLoop=1;jettySize=auto;html=1;" edge="1" parent="1" source="A1_KAzMcSSircRwKWK7I-17" target="A1_KAzMcSSircRwKWK7I-18">
          <mxGeometry relative="1" as="geometry" />
        </mxCell>
        <mxCell id="A1_KAzMcSSircRwKWK7I-14" value="否" style="edgeLabel;html=1;align=center;verticalAlign=middle;resizable=0;points=[];" vertex="1" connectable="0" parent="A1_KAzMcSSircRwKWK7I-13">
          <mxGeometry x="-0.1049" y="3" relative="1" as="geometry">
            <mxPoint y="1" as="offset" />
          </mxGeometry>
        </mxCell>
        <mxCell id="A1_KAzMcSSircRwKWK7I-15" value="" style="edgeStyle=orthogonalEdgeStyle;rounded=0;orthogonalLoop=1;jettySize=auto;html=1;" edge="1" parent="1" source="A1_KAzMcSSircRwKWK7I-17" target="A1_KAzMcSSircRwKWK7I-20">
          <mxGeometry relative="1" as="geometry" />
        </mxCell>
        <mxCell id="A1_KAzMcSSircRwKWK7I-16" value="是" style="edgeLabel;html=1;align=center;verticalAlign=middle;resizable=0;points=[];" vertex="1" connectable="0" parent="A1_KAzMcSSircRwKWK7I-15">
          <mxGeometry x="-0.3333" y="2" relative="1" as="geometry">
            <mxPoint as="offset" />
          </mxGeometry>
        </mxCell>
        <mxCell id="A1_KAzMcSSircRwKWK7I-17" value="创建订单是否成功" style="rhombus;whiteSpace=wrap;html=1;" vertex="1" parent="1">
          <mxGeometry x="787" y="420" width="103" height="80" as="geometry" />
        </mxCell>
        <mxCell id="A1_KAzMcSSircRwKWK7I-18" value="返回错信息（可能库存不足等原因）" style="whiteSpace=wrap;html=1;" vertex="1" parent="1">
          <mxGeometry x="961.5" y="430" width="120" height="60" as="geometry" />
        </mxCell>
        <mxCell id="A1_KAzMcSSircRwKWK7I-19" style="edgeStyle=orthogonalEdgeStyle;rounded=0;orthogonalLoop=1;jettySize=auto;html=1;" edge="1" parent="1" source="A1_KAzMcSSircRwKWK7I-20">
          <mxGeometry relative="1" as="geometry">
            <mxPoint x="960.0000000000005" y="610.0000000000002" as="targetPoint" />
          </mxGeometry>
        </mxCell>
        <mxCell id="A1_KAzMcSSircRwKWK7I-20" value="付款页面（支付渠道、支付倒计时）" style="whiteSpace=wrap;html=1;" vertex="1" parent="1">
          <mxGeometry x="778.5" y="580" width="120" height="60" as="geometry" />
        </mxCell>
        <mxCell id="A1_KAzMcSSircRwKWK7I-21" value="否" style="edgeStyle=orthogonalEdgeStyle;rounded=0;orthogonalLoop=1;jettySize=auto;html=1;" edge="1" parent="1" source="A1_KAzMcSSircRwKWK7I-24" target="A1_KAzMcSSircRwKWK7I-25">
          <mxGeometry relative="1" as="geometry" />
        </mxCell>
        <mxCell id="A1_KAzMcSSircRwKWK7I-22" value="" style="edgeStyle=orthogonalEdgeStyle;rounded=0;orthogonalLoop=1;jettySize=auto;html=1;" edge="1" parent="1" source="A1_KAzMcSSircRwKWK7I-24" target="A1_KAzMcSSircRwKWK7I-26">
          <mxGeometry relative="1" as="geometry" />
        </mxCell>
        <mxCell id="A1_KAzMcSSircRwKWK7I-23" value="是" style="edgeLabel;html=1;align=center;verticalAlign=middle;resizable=0;points=[];" vertex="1" connectable="0" parent="A1_KAzMcSSircRwKWK7I-22">
          <mxGeometry x="-0.2222" y="-1" relative="1" as="geometry">
            <mxPoint as="offset" />
          </mxGeometry>
        </mxCell>
        <mxCell id="A1_KAzMcSSircRwKWK7I-24" value="是否支付成功" style="rhombus;whiteSpace=wrap;html=1;" vertex="1" parent="1">
          <mxGeometry x="961.5" y="570" width="103" height="80" as="geometry" />
        </mxCell>
        <mxCell id="A1_KAzMcSSircRwKWK7I-25" value="待支付（延迟对队列）" style="whiteSpace=wrap;html=1;" vertex="1" parent="1">
          <mxGeometry x="1136" y="580" width="124" height="60" as="geometry" />
        </mxCell>
        <mxCell id="A1_KAzMcSSircRwKWK7I-26" value="支付成功页面" style="whiteSpace=wrap;html=1;" vertex="1" parent="1">
          <mxGeometry x="953" y="740" width="120" height="60" as="geometry" />
        </mxCell>
        <mxCell id="A1_KAzMcSSircRwKWK7I-27" value="结算" style="whiteSpace=wrap;html=1;rounded=1;" vertex="1" parent="1">
          <mxGeometry x="550" y="240" width="120" height="60" as="geometry" />
        </mxCell>
      </root>
    </mxGraphModel>
  </diagram>
</mxfile>
